<svg width="65" height="64" viewBox="0 0 65 64" fill="none" xmlns="http://www.w3.org/2000/svg">
<g clip-path="url(#clip0_179_4058)">
<path fill-rule="evenodd" clip-rule="evenodd" d="M56.6808 0C60.9964 0 64.5 3.50375 64.5 7.81925V56.1808C64.5 60.4963 60.9963 64 56.6808 64H43.3722V39.8856H51.6973L53.2812 29.558H43.3722V22.8559C43.3722 20.0305 44.7564 17.2764 49.1948 17.2764H53.7V8.48388C53.7 8.48388 49.6113 7.78613 45.7023 7.78613C37.5413 7.78613 32.2073 12.7322 32.2073 21.6866V29.558H23.1356V39.8856H32.2073V64H8.31925C4.00375 64 0.5 60.4963 0.5 56.1808V7.81925C0.5 3.50375 4.00362 0 8.31925 0L56.6808 0Z" fill="#333333"/>
</g>
<defs>
<clipPath id="clip0_179_4058">
<rect x="0.5" width="64" height="64" rx="8" fill="white"/>
</clipPath>
</defs>
</svg>
