<svg width="64" height="64" viewBox="0 0 64 64" fill="none" xmlns="http://www.w3.org/2000/svg">
<g clip-path="url(#clip0_179_4060)">
<path d="M59.2685 0H4.72765C2.11715 0 0 2.05364 0 4.58466V59.4166C0 61.9464 2.11715 64 4.72765 64H59.2685C61.8829 64 64 61.9451 64 59.4166V4.58466C64 2.05235 61.8816 0 59.2685 0ZM19.3988 53.5761H9.7324V24.6771H19.3988V53.5761ZM14.5662 20.7294H14.5015C11.2591 20.7294 9.16136 18.5098 9.16136 15.7369C9.16136 12.9022 11.3238 10.7443 14.6297 10.7443C17.9368 10.7443 19.9711 12.9022 20.0359 15.7369C20.0359 18.5098 17.9355 20.7294 14.5662 20.7294ZM54.2559 53.5761H44.5896V38.112C44.5896 34.2286 43.1911 31.5779 39.6936 31.5779C37.0235 31.5779 35.4334 33.3652 34.7329 35.092C34.4778 35.7084 34.4156 36.5705 34.4156 37.4352V53.5748H24.7493C24.7493 53.5748 24.8762 27.3845 24.7493 24.6759H34.4156V28.7664C35.7002 26.7977 37.9973 23.9939 43.1289 23.9939C49.4882 23.9939 54.2572 28.1256 54.2572 37.0029L54.2559 53.5761Z" fill="#333333"/>
</g>
<defs>
<clipPath id="clip0_179_4060">
<rect width="64" height="64" rx="8" fill="white"/>
</clipPath>
</defs>
</svg>
