<svg width="65" height="64" viewBox="0 0 65 64" fill="none" xmlns="http://www.w3.org/2000/svg">
<g clip-path="url(#clip0_179_4071)">
<path d="M21.1216 11.7563L32.948 28.3043L34.7843 30.8827L50.155 52.3916H43.8473L14.8139 11.7563H21.1216Z" fill="#333333"/>
<path fill-rule="evenodd" clip-rule="evenodd" d="M5.85334 0.00012207H59.1467C62.1033 0.00012207 64.5 2.39679 64.5 5.35346V58.6468C64.5 61.6035 62.1033 64.0001 59.1467 64.0001H5.85334C2.89666 64.0001 0.5 61.6035 0.5 58.6468V5.35346C0.5 2.39679 2.89666 0.00012207 5.85334 0.00012207ZM29.2209 37.1986L41.9119 55.2729H55.7727L36.9334 28.4383L54.2628 8.7274H50.157L35.103 25.8385L23.0881 8.7274H9.22727L27.4 34.6047L9.22727 55.2729H13.3333L29.2209 37.1986Z" fill="#333333"/>
</g>
<defs>
<clipPath id="clip0_179_4071">
<rect x="0.5" width="64" height="64" rx="8" fill="white"/>
</clipPath>
</defs>
</svg>
